<svg xmlns="http://www.w3.org/2000/svg" viewBox="0 0 100 100" fill-rule="evenodd"><rect x="0" y="0" width="100" height="100" fill="#abe200" rx="50" ry="50"></rect><g class="t-group-origins" style="transform-origin:center;transform:scale(0.58);"><path d="M75.563 88.75H8.097c.787-17.699 15.431-31.857 33.318-31.857a33.409 33.409 0 0 1 15.9 4.025 1.5 1.5 0 1 0 1.431-2.637 36.422 36.422 0 0 0-17.332-4.389c-20.044 0-36.352 16.31-36.352 36.357a1.5 1.5 0 0 0 1.5 1.5h68.999a1.5 1.5 0 0 0 .002-2.999zM40.807 50.072c11.533 0 20.916-9.381 20.916-20.911S52.34 8.251 40.807 8.251c-11.53 0-20.91 9.38-20.91 20.91s9.379 20.911 20.91 20.911zm0-38.822c9.879 0 17.916 8.034 17.916 17.91s-8.037 17.911-17.916 17.911c-9.876 0-17.91-8.035-17.91-17.911s8.034-17.91 17.91-17.91z" stroke-width="0" stroke="#000000" fill="#000000" stroke-width-old="0"></path><path d="m89.133 65.037-.042.001c-.05-.004-4.273.062-6.31-4.725-.547-1.286-.749-2.73-.822-3.512a8.336 8.336 0 0 0 2.004-5.445c0-4.632-3.769-8.399-8.4-8.399s-8.399 3.768-8.399 8.399c0 1.99.688 3.876 1.953 5.385-.111.975-.377 2.577-.879 3.708-2.115 4.771-5.976 4.592-6.129 4.593a1.526 1.526 0 0 0-.117-.005 5.809 5.809 0 0 0-5.801 5.802v4.198a1.5 1.5 0 0 0 1.5 1.5h.429l.029 6.479a1.5 1.5 0 0 0 1.5 1.493h31.984a1.5 1.5 0 0 0 1.5-1.5v-6.472h.303a1.5 1.5 0 0 0 1.5-1.5v-4.198a5.81 5.81 0 0 0-5.803-5.802zM59.19 70.839a2.805 2.805 0 0 1 2.765-2.802c.763.041 6.179.047 9.024-6.371.979-2.204 1.18-5.223 1.188-5.351a1.502 1.502 0 0 0-.433-1.152 5.364 5.364 0 0 1-1.571-3.807c0-2.978 2.422-5.399 5.399-5.399s5.4 2.422 5.4 5.399c0 1.45-.568 2.812-1.6 3.835-.293.29-.453.688-.444 1.101.003.112.076 2.785 1.103 5.195 2.756 6.478 8.585 6.534 9.122 6.55a2.806 2.806 0 0 1 2.792 2.802v2.698h-.022c-.091-.017-.185-.028-.281-.028s-.19.011-.281.028H59.19v-2.698zm30.943 10.67H61.142l-.022-4.972h29.013v4.972z" stroke-width="0" stroke="#000000" fill="#000000" stroke-width-old="0"></path></g></svg>
